<svg xmlns="http://www.w3.org/2000/svg" viewBox="0 0 128 128">
  <path fill="#ffffff" fill-rule="evenodd" clip-rule="evenodd" d="M64 0C28.65 0 0 28.65 0 64c0 28.28 18.33 52.28 43.77 60.75 3.2 0.58 4.37-1.38 4.37-3.08 0-1.52-0.05-5.55-0.08-10.9-17.8 3.87-21.56-8.58-21.56-8.58-2.91-7.4-7.11-9.37-7.11-9.37-5.81-3.97 0.44-3.89 0.44-3.89 6.42 0.45 9.8 6.59 9.8 6.59 5.71 9.78 14.99 6.95 18.64 5.32 0.58-4.14 2.24-6.95 4.07-8.55-14.21-1.61-29.15-7.1-29.15-31.62 0-6.99 2.49-12.7 6.58-17.18-0.66-1.62-2.85-8.13 0.62-16.93 0 0 5.37-1.72 17.61 6.57a61.34 61.34 0 0132 0c12.23-8.29 17.59-6.57 17.59-6.57 3.49 8.8 1.3 15.31 0.64 16.93 4.1 4.48 6.57 10.19 6.57 17.18 0 24.58-14.96 30-29.21 31.57 2.3 1.97 4.35 5.89 4.35 11.87 0 8.57-0.08 15.48-0.08 17.59 0 1.72 1.15 3.7 4.41 3.07C109.69 116.25 128 92.27 128 64c0-35.35-28.65-64-64-64z"/>
</svg>
